<?xml version="1.0" encoding="utf-8"?>
<!-- Generator: Adobe Illustrator 23.0.5, SVG Export Plug-In . SVG Version: 6.00 Build 0)  -->
<svg version="1.1" id="图层_1" xmlns="http://www.w3.org/2000/svg" xmlns:xlink="http://www.w3.org/1999/xlink" x="0px" y="0px"
	 viewBox="0 0 38.15 38.52" style="enable-background:new 0 0 38.15 38.52;" xml:space="preserve">
<style type="text/css">
	.st0{fill:#D7D7D7;}
	.st1{fill:#E4E4E3;}
	.st2{fill:#CACACA;}
	.st3{fill:#B1B1B1;}
	.st4{fill:#ABABAB;}
	.st5{fill:#A2A1A1;}
	.st6{fill:#F1F1F1;}
	.st7{fill:#666767;}
</style>
<g>
	<path class="st0" d="M34.25,0.24C33.39,0.08,32.35,0,31.08,0H19.07H7.06C5.8,0,4.76,0.08,3.9,0.24l2.31,2.9l25.72,0L34.25,0.24z"/>
	<path class="st1" d="M34.25,0.24l-4.18,0.3L19.07,19.26l18.9-15.7C37.62,1.74,36.63,0.67,34.25,0.24z"/>
	<path class="st2" d="M8.08,0.54L3.9,0.24C1.52,0.67,0.53,1.74,0.18,3.56h0l0,0l18.9,15.7L8.08,0.54z"/>
	<path class="st1" d="M31.94,3.14l6.04,0.42c0.13,0.66,0.18,1.41,0.18,2.27v28.21l-8.85-5.26L31.94,3.14z"/>
	<path class="st3" d="M6.21,3.14L0.18,3.56C0.05,4.22,0,4.97,0,5.83v28.21l8.85-5.26C8.85,28.77,6.19,3.39,6.21,3.14z"/>
	<path class="st0" d="M31.93,25.26l-12.86-6l15.1,19.26h0.74c1.87,0,3.24-1.47,3.24-3.15v-1.33L31.93,25.26z"/>
	<path class="st4" d="M6.22,25.26L0,34.03v1.33c0,1.68,1.38,3.15,3.24,3.15h0.74v0l0,0l15.09-19.26L6.22,25.26z"/>
	<polygon class="st5" points="29.3,28.77 19.07,19.26 8.85,28.77 3.98,38.52 19.07,38.52 34.17,38.52 	"/>
	<path class="st6" d="M28.11,0.33h-9.03h-9.03c-2.9,0-3.87,0.82-3.87,3.64v20.35c0,4.77,2.69,5,9.78,5h3.12h3.12
		c7.09,0,9.78-0.23,9.78-5V3.98C31.97,1.15,31,0.33,28.11,0.33z"/>
	<path class="st2" d="M21.86,28.27h-5.58c-0.38,0-0.69-0.31-0.69-0.69l0,0c0-0.38,0.31-0.69,0.69-0.69h5.58
		c0.38,0,0.69,0.31,0.69,0.69l0,0C22.55,27.96,22.24,28.27,21.86,28.27z"/>
	<path class="st7" d="M15.48,4.21v6.52c0,0.76-0.62,1.38-1.38,1.38s-1.38-0.62-1.38-1.38v-0.66h-1.33v0.66
		c0,1.5,1.21,2.71,2.71,2.71c1.5,0,2.71-1.21,2.71-2.71V4.21H15.48z"/>
</g>
</svg>
